<?xml version="1.0" encoding="UTF-8"?>
<svg width="1242px" height="2426px" viewBox="0 0 1242 2426" version="1.1" xmlns="http://www.w3.org/2000/svg" xmlns:xlink="http://www.w3.org/1999/xlink">
    <!-- Generator: Sketch 50.2 (55047) - http://www.bohemiancoding.com/sketch -->
    <title>Untitled</title>
    <desc>Created with Sketch.</desc>
    <defs>
        <linearGradient x1="49.9895271%" y1="100.011301%" x2="49.9895271%" y2="1.33137805e-14%" id="linearGradient-1">
            <stop stop-color="#808080" stop-opacity="0.25" offset="0%"></stop>
            <stop stop-color="#808080" stop-opacity="0.12" offset="54%"></stop>
            <stop stop-color="#808080" stop-opacity="0.1" offset="100%"></stop>
        </linearGradient>
        <linearGradient x1="50.0064244%" y1="99.9694963%" x2="50.0064244%" y2="-0.0281823568%" id="linearGradient-2">
            <stop stop-color="#808080" stop-opacity="0.25" offset="0%"></stop>
            <stop stop-color="#808080" stop-opacity="0.12" offset="54%"></stop>
            <stop stop-color="#808080" stop-opacity="0.1" offset="100%"></stop>
        </linearGradient>
    </defs>
    <g id="Page-1" stroke="none" stroke-width="1" fill="none" fill-rule="evenodd">
        <rect id="Rectangle" fill="#D81159" x="0" y="0" width="1242" height="2426"></rect>
        <text id="Find-the-best-restau" font-family="Avenir-Light, Avenir" font-size="64" font-weight="300" fill="#FFFFFF">
            <tspan x="262.096" y="1452">Find the best restaurants.</tspan>
            <tspan x="318.384" y="1539">Around your campus.</tspan>
            <tspan x="377.712" y="1626">Rated by people.</tspan>
            <tspan x="205" y="1713"></tspan>
            <tspan x="205.408" y="1800" font-family="Avenir-Heavy, Avenir" font-size="72" font-weight="600">Use Cibo With Facebook</tspan>
            <tspan x="1038.592" y="1800"></tspan>
        </text>
        <text id="Cibo" font-family="Avenir-Light, Avenir" font-size="144" font-weight="300">
            <tspan x="445" y="345" fill="#000000"> </tspan>
            <tspan x="482.44" y="345" font-family="Avenir-Black, Avenir" font-weight="700" fill="#FFFFFF">Cibo</tspan>
        </text>
        <g id="undraw_eating_together_tjhx" transform="translate(169.000000, 436.000000)">
            <ellipse id="Oval" fill="#000000" fill-rule="nonzero" opacity="0.1" cx="63.87" cy="514.57" rx="45" ry="16"></ellipse>
            <ellipse id="Oval" fill="#000000" fill-rule="nonzero" opacity="0.1" cx="790.85" cy="580.72" rx="45" ry="16"></ellipse>
            <path d="M532.89,18.43 C464.41,44.88 390.18,46.11 321.23,21.21 C223.51,-14.07 95.89,-23.1 48.6,138.57 C-32.11,414.78 133.01,513.37 133.01,513.37 C133.01,513.37 248.29,539.21 312.12,585.9 C402.79,652.22 513.83,674.39 618.43,643.29 C685.32,623.4 742.65,590.77 759.04,537.38 C804.88,388.06 775.78,298.31 858.74,258.94 C941.7,219.57 895.54,73.72 836.54,70.41 C777.54,67.1 638.54,100.93 595.54,33.64 C580.21,9.75 556.76,9.2 532.89,18.43 Z" id="Shape" fill="#000000" fill-rule="nonzero" opacity="0.1"></path>
            <path d="M789.03,582.99 C789.03,582.99 801.03,542.15 786.77,512.09 C780.696955,499.520155 778.865286,485.319459 781.55,471.62 C782.875519,465.12491 784.793541,458.764975 787.28,452.62" id="Shape" stroke="#535461" stroke-width="2"></path>
            <path d="M778.4,433.63 C778.4,438.63 787.46,453.15 787.46,453.15 C787.46,453.15 796.52,438.64 796.52,433.63 C796.52,428.623539 792.461461,424.565 787.455,424.565 C782.448539,424.565 778.39,428.623539 778.39,433.63 L778.4,433.63 Z" id="Shape" fill="#38D39F" fill-rule="nonzero"></path>
            <path d="M763.42,461.36 C766.14,465.56 781.64,472.82 781.64,472.82 C781.64,472.82 781.36,455.71 778.64,451.51 C776.880467,448.792995 773.805087,447.221078 770.572325,447.386376 C767.339563,447.551674 764.440553,449.429073 762.967324,452.311376 C761.494096,455.193679 761.670467,458.642995 763.43,461.36 L763.42,461.36 Z" id="Shape" fill="#38D39F" fill-rule="nonzero"></path>
            <path d="M764.07,508.73 C768.54,510.98 785.58,509.43 785.58,509.43 C785.58,509.43 776.7,494.8 772.23,492.55 C767.762016,490.296678 762.313322,492.092016 760.06,496.56 C757.806678,501.027984 759.602016,506.476678 764.07,508.73 Z" id="Shape" fill="#38D39F" fill-rule="nonzero"></path>
            <path d="M772.64,544.47 C776.64,547.47 793.72,548.79 793.72,548.79 C793.72,548.79 787.44,532.87 783.42,529.9 C779.396606,526.923186 773.721815,527.771607 770.745001,531.795001 C767.768186,535.818395 768.616606,541.493185 772.64,544.47 Z" id="Shape" fill="#38D39F" fill-rule="nonzero"></path>
            <path d="M800.66,473.79 C797.07,477.28 780.34,480.89 780.34,480.89 C780.34,480.89 784.44,464.28 788.03,460.79 C791.619851,457.302322 797.357321,457.38515 800.844999,460.975001 C804.332677,464.564851 804.24985,470.302322 800.66,473.79 Z" id="Shape" fill="#38D39F" fill-rule="nonzero"></path>
            <path d="M810.15,515.7 C805.68,517.95 788.64,516.4 788.64,516.4 C788.64,516.4 797.52,501.77 801.99,499.57 C806.457984,497.316679 811.906678,499.112017 814.159999,503.58 C816.413321,508.047984 814.617983,513.496678 810.15,515.75 L810.15,515.7 Z" id="Shape" fill="#38D39F" fill-rule="nonzero"></path>
            <path d="M813.78,557.71 C809.78,560.71 792.7,562.03 792.7,562.03 C792.7,562.03 798.98,546.11 803,543.14 C807.023394,540.163186 812.698185,541.011606 815.675,545.035 C818.651814,549.058395 817.803394,554.733185 813.78,557.71 Z" id="Shape" fill="#38D39F" fill-rule="nonzero"></path>
            <path d="M63.89,514.69 C63.89,514.69 89.58,427.57 59.09,363.37 C46.29,336.44 42.09,306.22 47.96,277 C50.7898398,263.141475 54.8836216,249.571409 60.19,236.46" id="Shape" stroke="#535461" stroke-width="2"></path>
            <path d="M41.22,195.91 C41.22,206.59 60.56,237.57 60.56,237.57 C60.56,237.57 79.89,206.57 79.89,195.91 C79.89,185.228813 71.2311871,176.57 60.55,176.57 C49.8688129,176.57 41.21,185.228813 41.21,195.91 L41.22,195.91 Z" id="Shape" fill="#38D39F" fill-rule="nonzero"></path>
            <path d="M9.25,255.08 C15.06,264.08 48.13,279.54 48.13,279.54 C48.13,279.54 47.53,243.02 41.72,234.06 C35.8088829,225.378933 24.0499464,223.001995 15.2311335,228.705569 C6.41232057,234.409144 3.75717604,246.108402 9.25,255.06 L9.25,255.08 Z" id="Shape" fill="#38D39F" fill-rule="nonzero"></path>
            <path d="M10.64,356.2 C20.18,361.01 56.55,357.69 56.55,357.69 C56.55,357.69 37.55,326.47 28.06,321.69 C21.8900233,318.578217 14.528613,318.994454 8.74874128,322.781919 C2.96886953,326.569384 -0.351363714,333.15267 0.0387412766,340.051919 C0.428846267,346.951167 4.47002326,353.118217 10.64,356.23 L10.64,356.2 Z" id="Shape" fill="#38D39F" fill-rule="nonzero"></path>
            <path d="M28.89,432.47 C37.48,438.82 73.89,441.69 73.89,441.69 C73.89,441.69 60.49,407.69 51.89,401.37 C43.3019721,395.018725 31.1912746,396.831972 24.84,405.42 C18.4887254,414.008028 20.3019721,426.118725 28.89,432.47 Z" id="Shape" fill="#38D39F" fill-rule="nonzero"></path>
            <path d="M88.74,281.57 C81.08,289.01 45.38,296.72 45.38,296.72 C45.38,296.72 54.12,261.26 61.78,253.82 C69.4429509,246.364156 81.6991559,246.532049 89.155,254.195 C96.6108441,261.857951 96.4429509,274.114156 88.78,281.57 L88.74,281.57 Z" id="Shape" fill="#38D39F" fill-rule="nonzero"></path>
            <path d="M108.99,371.08 C99.45,375.89 63.08,372.57 63.08,372.57 C63.08,372.57 82.08,341.35 91.57,336.57 C97.7399768,333.458217 105.101387,333.874454 110.881259,337.661919 C116.661131,341.449384 119.981364,348.03267 119.591259,354.931919 C119.201154,361.831167 115.159977,367.998217 108.99,371.11 L108.99,371.08 Z" id="Shape" fill="#38D39F" fill-rule="nonzero"></path>
            <path d="M116.74,460.74 C108.15,467.09 71.74,469.96 71.74,469.96 C71.74,469.96 85.14,435.96 93.74,429.64 C102.328028,423.288726 114.438725,425.101973 120.79,433.69 C127.141274,442.278028 125.328027,454.388725 116.74,460.74 Z" id="Shape" fill="#38D39F" fill-rule="nonzero"></path>
            <path d="M379.15,299.79 L323.42,292.57 C321.16,292.28 319.42,291.42 319.48,290.67 C319.58,289.92 321.48,289.57 323.79,289.9 L379.4,297.95 C380.93,298.17 382.09,298.75 382.02,299.26 C381.95,299.74 380.67,299.99 379.15,299.79 Z" id="Shape" fill="#38D39F" fill-rule="nonzero"></path>
            <path d="M379.5,300.74 L323.6,294.96 C321.33,294.73 319.4,295.15 319.33,295.9 C319.26,296.65 321.07,297.44 323.33,297.64 L379.33,302.64 C380.87,302.78 382.13,302.48 382.18,301.97 C382.22,301.43 381.03,300.9 379.5,300.74 Z" id="Shape" fill="#38D39F" fill-rule="nonzero"></path>
            <path d="M463.36,342.79 L519.08,335.57 C521.34,335.28 523.08,334.42 523.02,333.67 C522.92,332.92 521.02,332.57 518.71,332.9 L463.1,340.95 C461.57,341.17 460.41,341.75 460.48,342.26 C460.55,342.74 461.83,342.99 463.36,342.79 Z" id="Shape" fill="#38D39F" fill-rule="nonzero"></path>
            <path d="M463,343.74 L518.9,337.96 C521.17,337.73 523.1,338.15 523.17,338.9 C523.24,339.65 521.43,340.44 519.17,340.64 L463.17,345.64 C461.63,345.78 460.37,345.48 460.32,344.97 C460.28,344.43 461.47,343.9 463,343.74 Z" id="Shape" fill="#38D39F" fill-rule="nonzero"></path>
            <rect id="Rectangle-path" fill="#40414D" fill-rule="nonzero" x="265.44" y="402.64" width="13.59" height="194.86"></rect>
            <rect id="Rectangle-path" fill="#40414D" fill-rule="nonzero" x="562.26" y="402.64" width="13.59" height="194.86"></rect>
            <path d="M260.25,386.78 L574.25,386.78 C586.400264,386.78 596.25,396.629736 596.25,408.78 L596.25,411.7 L238.25,411.7 L238.25,408.78 C238.25,396.629736 248.099736,386.78 260.25,386.78 Z" id="Shape" fill="#DFE6F5" fill-rule="nonzero"></path>
            <path d="M259.25,386.78 L573.25,386.78 C585.400264,386.78 595.25,396.629736 595.25,408.78 L595.25,411.7 L237.25,411.7 L237.25,408.78 C237.25,396.629736 247.099736,386.78 259.25,386.78 Z" id="Shape" fill="#000000" fill-rule="nonzero" opacity="0.1"></path>
            <path d="M260.25,382.24 L574.25,382.24 C586.400264,382.24 596.25,392.089736 596.25,404.24 L596.25,407.16 L238.25,407.16 L238.25,404.24 C238.25,392.089736 248.099736,382.24 260.25,382.24 Z" id="Shape" fill="#DFE6F5" fill-rule="nonzero"></path>
            <circle id="Oval" stroke="#FFAB50" fill="#FFD77C" fill-rule="nonzero" cx="417.25" cy="339.19" r="27.19"></circle>
            <circle id="Oval" stroke="#FFAB50" fill="#FFD77C" fill-rule="nonzero" cx="417.25" cy="339.19" r="21.55"></circle>
            <circle id="Oval" stroke="#FFAB50" fill="#FFD77C" fill-rule="nonzero" cx="417.25" cy="339.19" r="16.42"></circle>
            <circle id="Oval" stroke="#FFAB50" fill="#FFD77C" fill-rule="nonzero" cx="417.25" cy="339.19" r="9.23"></circle>
            <circle id="Oval" stroke="#FFAB50" fill="#FFD77C" fill-rule="nonzero" cx="401.39" cy="353.92" r="27.19"></circle>
            <circle id="Oval" stroke="#FFAB50" fill="#FFD77C" fill-rule="nonzero" cx="401.39" cy="353.92" r="21.55"></circle>
            <circle id="Oval" stroke="#FFAB50" fill="#FFD77C" fill-rule="nonzero" cx="401.39" cy="353.92" r="16.42"></circle>
            <circle id="Oval" stroke="#FFAB50" fill="#FFD77C" fill-rule="nonzero" cx="401.39" cy="353.92" r="9.23"></circle>
            <circle id="Oval" stroke="#FFAB50" fill="#FFD77C" fill-rule="nonzero" cx="433.11" cy="353.92" r="27.19"></circle>
            <circle id="Oval" stroke="#FFAB50" fill="#FFD77C" fill-rule="nonzero" cx="433.11" cy="353.92" r="21.55"></circle>
            <circle id="Oval" stroke="#FFAB50" fill="#FFD77C" fill-rule="nonzero" cx="433.11" cy="353.92" r="16.42"></circle>
            <circle id="Oval" stroke="#FFAB50" fill="#FFD77C" fill-rule="nonzero" cx="433.11" cy="353.92" r="9.23"></circle>
            <path d="M360.6,346 L473.89,346 L473.89,351.32 C473.89,361.92866 469.675726,372.102816 462.174271,379.604271 C454.672816,387.105726 444.49866,391.32 433.89,391.32 L400.6,391.32 C378.50861,391.32 360.6,373.41139 360.6,351.32 L360.6,346 Z" id="Shape" fill="#38D39F" fill-rule="nonzero"></path>
            <path d="M463.67,345.99 C463.056954,370.563875 442.96152,390.166795 418.38,390.17 L395.89,390.17 C399.170807,390.919289 402.524727,391.301636 405.89,391.31 L428.55,391.31 C440.573076,391.315306 452.105534,386.542876 460.609009,378.043152 C469.112484,369.543429 473.890001,358.013077 473.89,345.99 L463.67,345.99 Z" id="Shape" fill="#000000" fill-rule="nonzero" opacity="0.1"></path>
            <rect id="Rectangle-path" fill="#40414D" fill-rule="nonzero" transform="translate(421.780000, 557.845000) rotate(90.000000) translate(-421.780000, -557.845000) " x="414.985" y="410.565" width="13.59" height="294.56"></rect>
            <rect id="Rectangle-path" fill="#40414D" fill-rule="nonzero" x="152.17" y="503.59" width="11.89" height="108.18"></rect>
            <rect id="Rectangle-path" fill="#40414D" fill-rule="nonzero" x="246.08" y="503.59" width="11.89" height="108.18"></rect>
            <path d="M267.49,485.76 C267.49,492.98 243.01,498.84 212.81,498.84 C182.61,498.84 159.32,492.99 159.32,485.76 C159.32,478.53 182.61,472.68 212.81,472.68 C243.01,472.68 267.49,478.57 267.49,485.76 Z" id="Shape" fill="#F6C6CD" fill-rule="nonzero"></path>
            <path d="M142.66,485.75 L267.48,485.75 L267.48,496.65 C267.48,502.44899 262.77899,507.15 256.98,507.15 L160.66,507.15 C150.718875,507.15 142.66,499.091125 142.66,489.15 L142.66,485.75 Z" id="Shape" fill="#40414D" fill-rule="nonzero"></path>
            <path d="M137.788756,358.558848 L140.428756,358.558848 C144.294749,358.558848 147.428756,361.692855 147.428756,365.558848 L147.428756,507.138848 L143.428756,507.138848 C136.436831,507.138848 130.768756,501.470773 130.768756,494.478848 L130.768756,365.558848 C130.768748,363.698862 131.508991,361.915347 132.826075,360.602016 C134.143158,359.288685 135.928778,358.553534 137.788756,358.558848 Z" id="Shape" fill="#40414D" fill-rule="nonzero" transform="translate(139.098756, 432.848834) rotate(-12.720000) translate(-139.098756, -432.848834) "></path>
            <rect id="Rectangle-path" fill="#40414D" fill-rule="nonzero" transform="translate(678.375000, 559.600000) rotate(-180.000000) translate(-678.375000, -559.600000) " x="672.43" y="505.51" width="11.89" height="108.18"></rect>
            <rect id="Rectangle-path" fill="#40414D" fill-rule="nonzero" transform="translate(584.465000, 559.600000) rotate(-180.000000) translate(-584.465000, -559.600000) " x="578.52" y="505.51" width="11.89" height="108.18"></rect>
            <path d="M569.02,487.68 C569.02,494.9 593.5,500.76 623.7,500.76 C653.9,500.76 677.19,494.91 677.19,487.68 C677.19,480.45 653.89,474.57 623.7,474.57 C593.51,474.57 569.02,480.46 569.02,487.68 Z" id="Shape" fill="#F6C6CD" fill-rule="nonzero"></path>
            <path d="M587.01,487.68 L683.33,487.68 C689.12899,487.68 693.83,492.38101 693.83,498.18 L693.83,509.08 L569.01,509.08 L569.01,505.68 C569.01,495.738875 577.068875,487.68 587.01,487.68 Z" id="Shape" fill="#40414D" fill-rule="nonzero" transform="translate(631.420000, 498.380000) rotate(-180.000000) translate(-631.420000, -498.380000) "></path>
            <path d="M701.721268,360.456174 L705.721268,360.456174 L705.721268,502.056174 C705.721268,505.922167 702.587261,509.056174 698.721268,509.056174 L696.081268,509.056174 C692.215274,509.056174 689.081268,505.922167 689.081268,502.056174 L689.081268,373.116174 C689.081259,366.132052 694.737155,360.467207 701.721268,360.456174 Z" id="Shape" fill="#40414D" fill-rule="nonzero" transform="translate(697.401268, 434.756174) rotate(-167.280000) translate(-697.401268, -434.756174) "></path>
            <path d="M681.06,445.57 L684.57,444.46 C684.57,444.46 678.57,404.38 678.63,368.46 C678.63,367.46 678.63,366.39 678.63,365.36 C678.7,363.12 678.78,360.9 678.89,358.73 C679.03,355.95 679.06,353.3 679.04,350.73 C679.37,316.14 665.74,301.53 665.74,301.53 C665.74,301.53 649.74,278.71 640.15,274.27 C639.32,271.67 638.37,268.33 637.53,264.45 C637.84,264.24 638.14,264.03 638.43,263.81 C642.390622,260.872095 646.180132,257.710275 649.78,254.34 C654.7,249.73 659.42,244.11 659.16,237.77 C659.187031,237.152705 659.166973,236.534247 659.1,235.92 C658.19,228.27 650.24,222.51 647.03,215.26 C644.33,209.17 645.14,202.39 642.78,196.21 C640.42,190.03 632.18,184.28 625.96,187.53 C623.67,188.73 622.29,190.85 620.38,192.46 C615.64,196.46 608,196.83 601.52,195.01 C595.04,193.19 593.12,185.77 584.06,185.75 C584.86446,186.019745 585.633369,186.385732 586.35,186.84 C585.593205,186.7125 584.827439,186.645621 584.06,186.64 C587.824804,187.831187 590.5361,191.126274 590.98,195.05 C590.965923,195.291232 590.939219,195.531561 590.9,195.77 C587.28,197.72 582.52,196.61 578.18,196.54 C573.84,196.47 568.9,198.66 569.33,202.21 C569.257096,202.613399 569.257096,203.026601 569.33,203.43 C569.9,206.12 573.5,208.15 573.94,210.64 C573.94,210.71 573.94,210.77 573.94,210.84 C565.908526,214.853338 557.219794,217.387128 548.29,218.32 C548,218.32 548.13,218.67 548.55,219.18 L548.29,219.18 C546.66,219.35 558.06,228.36 559.36,228.95 C564.12,231.11 569.81,232.7 574.85,234.36 L575.29,234.5 C573.591869,238.444926 572.717332,242.69511 572.72,246.99 C572.72,262.39 583.79,275.33 598.78,278.99 C601.58,282.26 604.52,285.85 607.2,289.42 L607.01,289.42 C607.01,289.42 589.78,312.34 590.33,346.57 C590.281124,350.860153 590.50826,355.149007 591.01,359.41 C579.93,358.78 556.12,355.86 538.01,342.6 C513.58,324.73 486.33,330.09 492.01,340.81 C497.69,351.53 526.78,360.46 531.47,361.36 C531.91,361.44 532.93,361.68 534.39,362.04 C528.61,363.13 524.65,365.04 524.89,367.61 C525.36,372.52 550.26,388.16 565.29,389.05 C575.22,389.64 587.17,392.7 596.6,395.39 C597.51,415.94 592.54,422.1 592.54,422.1 C592.54,422.1 594.02,423.01 596.47,424.3 L595.42,427.3 C589.32,430.82 581.8,434.49 574.96,435.97 C566.243779,437.760868 557.771105,440.580617 549.72,444.37 L515.89,460.72 C509.747872,463.569709 505.512789,469.389167 504.69,476.11 C503.95,483.04 506.04,491.7 517.36,498.57 C518.06,504.2 521.5,510.77 530.53,516.79 C548.03,528.43 594.02,563.3 600.28,568.06 C600.4,576.57 599.28,593.64 588.78,596.3 C575.62,599.64 586.21,612.3 596.85,611.8 C599.374888,612.75515 602.122793,612.95664 604.76,612.38 C616.04,609.7 657.38,595.38 660.2,573.96 C660.317096,573.031405 660.370554,572.095889 660.36,571.16 C660.523985,567.508398 659.613032,563.888923 657.74,560.75 C658.181156,561.717823 658.539115,562.721447 658.81,563.75 C655.39,555.95 647.06,551.05 640.58,548.29 C640.58,548.22 640.58,548.14 640.58,548.07 C639.58,547.68 638.58,547.36 637.76,547.07 C637.776565,546.49039 637.732998,545.910625 637.63,545.34 L572.8,500.67 C572.8,500.67 600.99,477.44 630.12,481.02 C659.25,484.6 663.89,479.31 663.89,479.31 C663.89,479.31 678.83,465.1 680.33,448.74 L681.27,448.49 C681.27,448.49 681.2,447.46 681.06,445.57 Z" id="Shape" fill="url(#linearGradient-1)" fill-rule="nonzero"></path>
            <path d="M601.89,561.92 C601.89,561.92 604.54,591.09 591.28,594.63 C578.02,598.17 590.4,612.31 601,609.63 C611.6,606.95 650.51,592.83 653.16,571.63 C655.81,550.43 626.64,543.34 626.64,543.34 L601.89,561.92 Z" id="Shape" fill="#B8616E" fill-rule="nonzero"></path>
            <path d="M601.89,561.92 C601.89,561.92 604.54,591.09 591.28,594.63 C578.02,598.17 590.4,612.31 601,609.63 C611.6,606.95 650.51,592.83 653.16,571.63 C655.81,550.43 626.64,543.34 626.64,543.34 L601.89,561.92 Z" id="Shape" fill="#000000" fill-rule="nonzero" opacity="0.05"></path>
            <path d="M607.22,562.8 C607.22,562.8 609.87,591.97 596.61,595.51 C583.35,599.05 595.73,613.19 606.33,610.51 C616.93,607.83 655.84,593.71 658.49,572.51 C661.14,551.31 631.97,544.22 631.97,544.22 L607.22,562.8 Z" id="Shape" fill="#B8616E" fill-rule="nonzero"></path>
            <path d="M634.62,545.12 L609.89,563.69 C609.89,563.69 610,564.95 610.07,566.96 C619.41,564.4 639.76,557.6 640.07,546.96 C638.291817,546.238087 636.471873,545.623647 634.62,545.12 Z" id="Shape" fill="#000000" fill-rule="nonzero" opacity="0.1"></path>
            <rect id="Rectangle-path" fill="#F8BDC5" fill-rule="nonzero" x="608.54" y="290.95" width="10.61" height="7.96"></rect>
            <path d="M608.99,419.57 C608.99,419.57 592.14,432.81 578.3,435.95 C570.071152,437.730761 562.093995,440.521927 554.55,444.26 L522.72,460.44 C516.846142,463.394895 512.875951,469.131708 512.18,475.67 C511.27,484.67 514.89,496.51 536.49,503.55 L604.56,560.13 L625.78,542.45 L553.29,486.77 L608.99,452.29 L608.99,419.57 Z" id="Shape" fill="#758AC8" fill-rule="nonzero"></path>
            <path d="M608.99,419.57 C608.99,419.57 592.14,432.81 578.3,435.95 C570.071152,437.730761 562.093995,440.521927 554.55,444.26 L522.72,460.44 C516.846142,463.394895 512.875951,469.131708 512.18,475.67 C511.27,484.67 514.89,496.51 536.49,503.55 L604.56,560.13 L625.78,542.45 L553.29,486.77 L608.99,452.29 L608.99,419.57 Z" id="Shape" fill="#000000" fill-rule="nonzero" opacity="0.1"></path>
            <path d="M599.26,360.35 C599.26,360.35 566.55,361.23 543.56,343.55 C520.57,325.87 494.94,331.17 500.24,341.78 C505.54,352.39 532.95,361.23 537.37,362.11 C541.79,362.99 605.44,380.68 605.44,380.68 L599.26,360.35 Z" id="Shape" fill="#F8BDC5" fill-rule="nonzero"></path>
            <path d="M599.26,360.35 C599.26,360.35 566.55,361.23 543.56,343.55 C520.57,325.87 494.94,331.17 500.24,341.78 C505.54,352.39 532.95,361.23 537.37,362.11 C541.79,362.99 605.44,380.68 605.44,380.68 L599.26,360.35 Z" id="Shape" fill="#000000" fill-rule="nonzero" opacity="0.05"></path>
            <path d="M602.8,411.63 L592.19,443.46 C592.19,443.46 532.52,480.15 527.65,485.01 C523.87,488.79 518.81,503.58 536.49,515.95 C554.17,528.32 602.79,567.23 602.79,567.23 C602.79,567.23 639.92,559.23 637.27,544.23 L576.27,500.03 C576.27,500.03 602.79,477.03 630.2,480.58 C657.61,484.13 662.03,478.81 662.03,478.81 C662.03,478.81 683.25,457.57 676.17,437.27 C669.09,416.97 602.8,411.63 602.8,411.63 Z" id="Shape" fill="#758AC8" fill-rule="nonzero"></path>
            <path d="M589.54,267.57 C589.54,267.57 619.6,300.28 617.83,310 C616.06,319.72 641.7,281.71 641.7,281.71 C641.7,281.71 633.7,262.26 635.51,241.04 L589.54,267.57 Z" id="Shape" fill="#F8BDC5" fill-rule="nonzero"></path>
            <path d="M615.77,297.57 C617.820586,295.404892 619.980046,293.345561 622.24,291.4 C626.763442,287.690502 630.9132,283.547444 634.63,279.03 C640.82,271.03 663.8,305.55 663.8,305.55 C663.8,305.55 677.94,321.46 676.18,359.48 C674.42,397.5 678.39,448.33 678.39,448.33 L673.04,449.82 C663.903774,452.868795 653.865607,451.442708 645.94,445.97 C638.88,441.09 629.94,435.97 623.14,435.51 C609.88,434.63 597.94,427.11 597.94,427.11 C597.94,427.11 603.69,413.41 594.85,369.2 C586.01,324.99 608.54,293.57 608.54,293.57 C608.54,293.57 610.32,303.19 615.77,297.57 Z" id="Shape" fill="#000000" fill-rule="nonzero" opacity="0.1"></path>
            <path d="M681.48,444.34 L676.18,446.11 L673.03,447.16 C663.89392,450.210402 653.855019,448.784211 645.93,443.31 C638.88,438.44 629.93,433.31 623.13,432.85 C609.89,431.96 594.89,422.24 594.89,422.24 C594.89,422.24 603.73,410.75 594.89,366.54 C586.05,322.33 608.59,290.95 608.59,290.95 C608.59,290.95 610.37,300.52 615.82,294.89 C617.866272,292.727244 620.022455,290.671194 622.28,288.73 C626.803442,285.020502 630.9532,280.877444 634.67,276.36 C640.86,268.36 663.84,302.88 663.84,302.88 C663.84,302.88 677.98,318.79 676.22,356.81 C676.03,360.81 675.95,364.93 675.94,369.1 C675.81,404.68 681.48,444.34 681.48,444.34 Z" id="Shape" fill="#5E52AD" fill-rule="nonzero"></path>
            <path d="M631.09,357.7 L631.97,377.15 C631.97,377.15 585.11,379.8 575.39,370.08 C565.67,360.36 601.89,398.67 609.89,401.02 C617.4,403.23 636.79,405.18 646.96,405.38 C652.895896,405.571064 658.385561,402.241974 660.96,396.89 C662.145437,394.312459 662.528686,391.43809 662.06,388.64 C660.29,377.15 662.06,352.39 662.06,352.39 L631.09,357.7 Z" id="Shape" fill="#000000" fill-rule="nonzero" opacity="0.1"></path>
            <path d="M631.09,355.93 L631.97,375.38 C631.97,375.38 585.11,378.03 575.39,368.31 C565.67,358.59 530.5,360.74 531.19,368.31 C531.63,373.17 555.06,388.64 569.19,389.53 C583.32,390.42 601.89,396.9 609.89,399.25 C617.4,401.46 636.79,403.41 646.96,403.61 C652.895896,403.801064 658.385561,400.471974 660.96,395.12 C662.145437,392.542459 662.528686,389.66809 662.06,386.87 C660.29,375.38 662.06,350.62 662.06,350.62 L631.09,355.93 Z" id="Shape" fill="#F8BDC5" fill-rule="nonzero"></path>
            <path d="M641.7,299.35 C641.7,299.35 621.37,302 624.02,332.06 C626.67,362.12 630.21,364.77 630.21,364.77 C630.21,364.77 660.27,362.12 663.8,361.23 C667.33,360.34 665.57,327.64 665.57,327.64 C665.57,327.64 664.68,298.47 641.7,299.35 Z" id="Shape" fill="#000000" fill-rule="nonzero" opacity="0.1"></path>
            <path d="M641.7,298.47 C641.7,298.47 621.37,301.12 624.02,331.18 C626.67,361.24 630.21,363.89 630.21,363.89 C630.21,363.89 660.27,361.24 663.8,360.35 C667.33,359.46 665.57,326.76 665.57,326.76 C665.57,326.76 664.68,297.57 641.7,298.47 Z" id="Shape" fill="#5E52AD" fill-rule="nonzero"></path>
            <path d="M634.18,260.01 C632.79,253.01 635.64,250.85 636.39,241.89 L590.39,268.41 C590.39,268.41 595.66,274.15 601.65,281.52 C604.326966,282.197054 607.078772,282.53305 609.84,282.52 C621.89,282.57 628.48,269.63 634.18,260.01 Z" id="Shape" fill="#000000" fill-rule="nonzero" opacity="0.1"></path>
            <circle id="Oval" fill="#F8BDC5" fill-rule="nonzero" cx="608.98" cy="248.96" r="32.71"></circle>
            <path d="M617.23,239.03 C612.23,242.21 612.16,249.4 615.38,254.38 C618.6,259.36 624.15,262.65 629.49,265.75 C631.04,266.65 632.75,267.58 634.49,267.38 C635.827736,267.11929 637.06698,266.492745 638.07,265.57 C641.806913,262.654268 645.372816,259.525755 648.75,256.2 C653.61,251.42 658.28,245.53 657.52,238.86 C656.66,231.29 649.18,225.59 646.16,218.42 C643.62,212.42 644.38,205.69 642.16,199.56 C639.94,193.43 632.16,187.76 626.34,190.97 C624.19,192.15 622.89,194.26 621.09,195.85 C616.63,199.79 609.44,200.18 603.34,198.38 C597.24,196.58 595.43,189.23 586.92,189.21 C591.15,190.7 594.01,195.11 593.36,199.13 C589.95,201.06 585.47,199.96 581.36,199.89 C577.25,199.82 572.36,202.12 573.07,205.82 C573.69,208.82 578.02,211.05 577.38,214.05 C569.868024,218.007298 561.679224,220.517535 553.24,221.45 C551.71,221.62 562.43,230.53 563.65,231.12 C568.12,233.26 573.49,234.83 578.22,236.47 C591.07,240.9 604.23,242.48 617.23,239.03 Z" id="Shape" fill="#000000" fill-rule="nonzero" opacity="0.1"></path>
            <path d="M617.23,238.14 C612.23,241.32 612.16,248.51 615.38,253.49 C618.6,258.47 624.15,261.76 629.49,264.86 C631.04,265.76 632.75,266.69 634.49,266.49 C635.827736,266.22929 637.06698,265.602745 638.07,264.68 C641.806913,261.764268 645.372816,258.635755 648.75,255.31 C653.61,250.53 658.28,244.64 657.52,237.97 C656.66,230.4 649.18,224.7 646.16,217.53 C643.62,211.53 644.38,204.8 642.16,198.67 C639.94,192.54 632.16,186.87 626.34,190.08 C624.19,191.26 622.89,193.37 621.09,194.96 C616.63,198.9 609.44,199.29 603.34,197.49 C597.24,195.69 595.43,188.34 586.92,188.32 C591.15,189.81 594.01,194.22 593.36,198.24 C589.95,200.17 585.47,199.07 581.36,199 C577.25,198.93 572.36,201.23 573.07,204.93 C573.69,207.93 578.02,210.16 577.38,213.16 C569.868024,217.117298 561.679224,219.627535 553.24,220.56 C551.71,220.73 562.43,229.64 563.65,230.23 C568.12,232.37 573.49,233.94 578.22,235.58 C591.07,240.02 604.23,241.57 617.23,238.14 Z" id="Shape" fill="#916168" fill-rule="nonzero"></path>
            <path d="M656.18,559.46 C657.599723,562.733923 658.09433,566.334521 657.61,569.87 C654.96,591.09 616.06,605.23 605.45,607.87 C599.86,609.27 593.77,606 591.22,602.07 C592.86,606.69 599.92,611.24 606.34,609.64 C616.95,606.99 655.85,592.84 658.5,571.64 C659.07909,567.435546 658.264161,563.157168 656.18,559.46 Z" id="Shape" fill="#FFFFFF" fill-rule="nonzero" opacity="0.1"></path>
            <path d="M375.23,583.57 C374.44,581.79 370.34,578.32 350.57,577.57 C337.03,577.06 332.42,569.91 331.17,562.93 C335.62,562.35 339.1,561.55 340.24,560.44 C340.24,560.44 340.18,560.12 340.08,559.55 L340.24,559.43 C339.375319,554.395294 338.923814,549.298307 338.89,544.19 C338.864022,539.818776 339.326897,535.458353 340.27,531.19 C340.820589,528.368239 341.052044,525.493502 340.96,522.62 C341.07,505.62 335.1,475.74 335.1,475.74 L334.28,450.91 C334.112263,444.599289 330.510654,438.884276 324.89,436.01 C322.926122,434.993722 320.751138,434.452545 318.54,434.43 C318.54,434.43 287.2,429.49 258.99,426.8 C256.99,425.19 249.94,420.85 233.78,423.34 L224.48,396.12 C224.404865,395.790522 224.351417,395.456472 224.32,395.12 C224.65,391.66 226.96,386.45 237.73,386.12 L239.98,388.12 C239.98,388.12 240.38,387.33 241.05,386.12 C254.41,385.97 327.19,385.23 330.94,386.12 C335.07,387.12 371.25,379.06 372.29,378.06 C386.35,364.35 330.94,371 330.94,371 C325.49,371.89 307.88,370.83 289.84,369.36 C298.77,355.97 307.17,310.52 307.17,310.52 C307.17,310.52 339.17,294.39 329.91,285.32 C320.65,276.25 292.7,305.48 292.7,305.48 C292.7,305.48 281.33,338.75 276.16,348.83 C274.16,352.83 271.57,353.65 269.26,353.19 C270.31,352.35 270.99,351.85 270.99,351.85 C270.99,351.85 248.25,333.7 246.18,326.65 C245.794494,325.494957 245.284847,324.385134 244.66,323.34 C243.57,316.95 241.66,310.66 237,306.47 C236.217331,305.629724 235.353083,304.86932 234.42,304.2 C233.16,303.3 231.73,302.52 230.54,301.54 C231.21,298.46 231.99,295.26 232.8,292.16 C249.68,290.16 262.8,276.16 262.8,259.16 C262.797409,256.596349 262.491958,254.041979 261.89,251.55 C267.021351,251.887842 271.954543,249.512321 274.89,245.29 C278.3,240.21 278.19,233.29 275.33,227.93 C274.14779,225.753821 272.598313,223.798368 270.75,222.15 C267.803302,219.182135 264.209455,216.936836 260.25,215.59 C256.82,214.4 253.03,213.69 250.31,211.36 C249.094479,209.770379 247.988588,208.09985 247,206.36 C245.858568,204.651726 244.515566,203.087129 243,201.7 C238,196.55 230.94,193.38 223.75,191.98 C214.99,190.27 205.94,190.88 197.03,191.49 C193.7,191.72 189.79,192.31 188.29,195.21 C187.16,197.39 187.9,200 187.75,202.43 C187.28,210.16 178.44,214.43 170.75,216.3 C163.06,218.17 153.89,219.79 150.18,226.57 C146.81,232.69 149.18,240.11 150.26,246.98 C152.058773,259.042689 149.380295,271.346613 142.73,281.57 C139.35,286.74 134.99,291.34 132.32,296.89 C129.362082,303.077022 128.675316,310.107518 130.38,316.75 C130.88,318.69 131.6,320.67 131.24,322.65 C130.830788,324.282692 130.027309,325.790074 128.9,327.04 C119.603905,338.519076 105.939121,345.597942 91.2,346.57 C91.8122879,348.600197 93.0086854,350.405227 94.64,351.76 C96.7124692,353.809335 99.129302,355.4781 101.78,356.69 C108.763157,360.192101 116.106279,362.924815 123.68,364.84 C128.78,366.13 134.11,367.05 139.3,366.17 C144.49,365.29 149.55,362.32 151.68,357.62 C152.92,354.9 153.1,351.82 154.2,349.05 C156.39,343.51 161.82,339.92 165.49,335.17 C164.254167,347.410306 163.670009,359.707664 163.74,372.01 C163.74,375.86 163.74,379.33 163.74,382.55 C163.74,396.44 162.74,406.02 154.13,423.37 C153.103888,425.193813 152.65415,427.285616 152.84,429.37 C152.459157,431.661023 153.314271,433.983132 155.09,435.48 C154.489899,438.940635 154.198752,442.447783 154.22,445.96 C154.1,458.6 158.37,475.57 181.01,479.87 L221.32,477.87 C221.32,477.87 278.17,466.78 293.67,474.87 C296.305934,475.430642 298.193004,477.755112 298.2,480.45 C298.152036,481.290788 298.021406,482.124811 297.81,482.94 C297.378175,485.559878 297.213997,488.21689 297.32,490.87 C297.25,507.87 300.91,546.45 300.91,546.45 L300.91,562.81 C298.33,566.69 295.15,572.43 295.56,576.66 C295.56,576.75 295.56,576.85 295.56,576.94 C295.56,577.03 295.56,577.19 295.62,577.31 C295.68,577.43 295.62,577.53 295.69,577.64 C295.76,577.75 295.75,577.85 295.78,577.96 C295.81,578.07 295.86,578.2 295.91,578.31 C295.96,578.42 295.98,578.49 296.02,578.58 C296.06,578.67 296.15,578.84 296.22,578.96 L296.34,579.17 C296.460272,579.362486 296.593935,579.546272 296.74,579.72 C301.91,585.72 327.74,597.33 336.02,596.86 C344.81,596.36 374.26,597.86 375.3,584.76 C375.431871,584.369265 375.406772,583.942579 375.23,583.57 Z" id="Shape" fill="url(#linearGradient-2)" fill-rule="nonzero"></path>
            <path d="M301.75,558.25 C301.75,558.25 289.75,573.25 294.75,579.25 C299.75,585.25 324.75,596.72 332.75,596.25 C341.25,595.75 369.75,597.25 370.75,584.25 C370.75,584.25 372.75,578.25 346.75,577.25 C320.75,576.25 328.75,549.25 328.75,549.25 L301.75,558.25 Z" id="Shape" fill="#594C76" fill-rule="nonzero"></path>
            <path d="M158.75,432.25 C158.75,432.25 146.75,473.25 182.75,480.25 L221.75,478.25 C221.75,478.25 276.75,467.25 291.75,475.25 C291.75,475.25 297.75,476.25 295.75,484.25 C293.75,492.25 298.75,546.25 298.75,546.25 L298.75,564.25 C298.75,564.25 332.75,564.25 336.75,560.25 C336.75,560.25 333.75,544.25 336.75,531.25 C339.75,518.25 331.75,477.25 331.75,477.25 L330.96,452.57 C330.840687,446.360665 327.375672,440.700375 321.9,437.77 C320.007438,436.766722 317.901935,436.231773 315.76,436.21 C315.76,436.21 247.76,425.21 223.76,427.21 C199.76,429.21 158.75,432.25 158.75,432.25 Z" id="Shape" fill="#000000" fill-rule="nonzero" opacity="0.1"></path>
            <path d="M158.75,431.25 C158.75,431.25 146.75,472.25 182.75,479.25 L221.75,477.25 C221.75,477.25 276.75,466.25 291.75,474.25 C291.75,474.25 297.75,475.25 295.75,483.25 C293.75,491.25 298.75,545.25 298.75,545.25 L298.75,563.25 C298.75,563.25 332.75,563.25 336.75,559.25 C336.75,559.25 333.75,543.25 336.75,530.25 C339.75,517.25 331.75,476.25 331.75,476.25 L330.96,451.57 C330.840687,445.360665 327.375672,439.700375 321.9,436.77 C320.007438,435.766722 317.901935,435.231773 315.76,435.21 C315.76,435.21 247.76,424.21 223.76,426.21 C199.76,428.21 158.75,431.25 158.75,431.25 Z" id="Shape" fill="#8B9CD1" fill-rule="nonzero"></path>
            <path d="M261.75,350.25 C261.75,350.25 269.75,360.25 274.75,350.25 C279.75,340.25 290.75,307.25 290.75,307.25 C290.75,307.25 317.75,278.25 326.75,287.25 C335.75,296.25 304.75,312.25 304.75,312.25 C304.75,312.25 293.75,373.25 283.75,374.25 C273.75,375.25 258.75,374.25 258.75,374.25 L253.75,363.25 L261.75,350.25 Z" id="Shape" fill="#F8BDC5" fill-rule="nonzero"></path>
            <path d="M261.75,350.25 C261.75,350.25 269.75,360.25 274.75,350.25 C279.75,340.25 290.75,307.25 290.75,307.25 C290.75,307.25 317.75,278.25 326.75,287.25 C335.75,296.25 304.75,312.25 304.75,312.25 C304.75,312.25 293.75,373.25 283.75,374.25 C273.75,375.25 258.75,374.25 258.75,374.25 L253.75,363.25 L261.75,350.25 Z" id="Shape" fill="#000000" fill-rule="nonzero" opacity="0.05"></path>
            <path d="M225.75,300.25 C225.75,300.25 243.75,321.25 245.75,328.25 C247.75,335.25 269.75,353.25 269.75,353.25 C269.75,353.25 253.75,365.25 256.75,371.25 C259.75,377.25 235.75,351.25 235.75,351.25 L207.75,310.25 L225.75,300.25 Z" id="Shape" fill="#EB6475" fill-rule="nonzero"></path>
            <path d="M225.75,300.25 C225.75,300.25 243.75,321.25 245.75,328.25 C247.75,335.25 269.75,353.25 269.75,353.25 C269.75,353.25 253.75,365.25 256.75,371.25 C259.75,377.25 235.75,351.25 235.75,351.25 L207.75,310.25 L225.75,300.25 Z" id="Shape" fill="#000000" fill-rule="nonzero" opacity="0.1"></path>
            <path d="M237.75,276.25 C237.75,276.25 228.75,305.25 228.75,316.25 C228.75,327.25 190.75,313.25 191.75,307.25 C192.75,301.25 213.75,279.25 214.75,270.25 C215.75,261.25 237.75,276.25 237.75,276.25 Z" id="Shape" fill="#F8BDC5" fill-rule="nonzero"></path>
            <path d="M207.75,296.25 C207.75,296.25 172.75,287.25 167.75,338.25 C162.75,389.25 171.75,395.25 156.75,426.25 C141.75,457.25 258.75,430.25 258.75,430.25 C258.75,430.25 252.75,423.25 233.75,426.25 L224.75,399.25 C224.75,399.25 221.75,387.25 238.75,387.25 C255.75,387.25 247.75,352.25 247.75,352.25 C247.75,352.25 238.75,322.25 233.75,319.25 C228.75,316.25 219.75,298.25 207.75,296.25 Z" id="Shape" fill="#000000" fill-rule="nonzero" opacity="0.1"></path>
            <path d="M207.75,294.25 C207.75,294.25 172.75,285.25 167.75,336.25 C162.75,387.25 171.75,393.25 156.75,424.25 C141.75,455.25 258.75,428.25 258.75,428.25 C258.75,428.25 252.75,421.25 233.75,424.25 L224.75,397.25 C224.75,397.25 221.75,385.25 238.75,385.25 C255.75,385.25 247.75,350.25 247.75,350.25 C247.75,350.25 238.75,320.25 233.75,317.25 C228.75,314.25 219.75,296.25 207.75,294.25 Z" id="Shape" fill="#EB6475" fill-rule="nonzero"></path>
            <path d="M242.75,366.25 C242.75,366.25 315.75,374.25 327.75,372.25 C327.75,372.25 381.35,365.65 367.75,379.25 C366.75,380.25 331.75,388.25 327.75,387.25 C323.75,386.25 238.75,387.25 238.75,387.25 L237.75,377.25 L242.75,366.25 Z" id="Shape" fill="#F8BDC5" fill-rule="nonzero"></path>
            <path d="M186.75,341.25 L239.75,389.25 C239.75,389.25 249.75,369.25 252.75,369.25 C255.75,369.25 216.75,310.25 216.75,310.25 C216.75,310.25 206.75,298.25 200.75,304.25 C194.75,310.25 176.75,306.25 186.75,341.25 Z" id="Shape" fill="#000000" fill-rule="nonzero" opacity="0.1"></path>
            <path d="M185.75,339.25 L238.75,387.25 C238.75,387.25 248.75,367.25 251.75,367.25 C254.75,367.25 215.75,308.25 215.75,308.25 C215.75,308.25 205.75,296.25 199.75,302.25 C193.75,308.25 175.75,304.25 185.75,339.25 Z" id="Shape" fill="#EB6475" fill-rule="nonzero"></path>
            <circle id="Oval" fill="#F8BDC5" fill-rule="nonzero" cx="228.75" cy="261.25" r="33"></circle>
            <path d="M257.65,252.96 C263.25,255.17 270.11,252.52 273.41,247.49 C276.71,242.46 276.61,235.61 273.83,230.27 C271.05,224.93 265.91,221.05 260.24,219.03 C256.8,217.81 252.97,217.11 250.33,214.59 C248.66,213 247.67,210.85 246.42,208.91 C241.75,201.63 233.42,197.33 224.95,195.64 C216.48,193.95 207.72,194.55 199.1,195.15 C195.88,195.38 192.1,195.96 190.64,198.84 C189.55,201 190.26,203.59 190.12,206 C189.67,213.67 181.12,217.92 173.65,219.76 C166.18,221.6 157.52,223.33 153.88,230.09 C150.62,236.16 152.95,243.52 153.96,250.34 C155.687153,262.252875 153.105619,274.391048 146.68,284.57 C143.41,289.7 139.2,294.26 136.61,299.77 C133.744947,305.927371 133.081268,312.881872 134.73,319.47 C135.22,321.4 135.91,323.36 135.57,325.32 C135.178092,326.930888 134.402759,328.423232 133.31,329.67 C124.44722,341.010187 111.196206,348.066251 96.84,349.09 C97.98,353.38 102.13,356.09 106.08,358.09 C112.820177,361.556718 119.923446,364.266558 127.26,366.17 C132.19,367.45 137.35,368.36 142.37,367.49 C147.39,366.62 152.28,363.67 154.37,359.01 C155.57,356.31 155.75,353.26 156.81,350.5 C159.2,344.31 165.57,340.57 168.99,334.88 C172.26,329.44 173.53,328.8 174.36,322.52 C175.19,316.24 177.02,309.46 182.18,305.77 C187.58,301.9 195.18,302.64 201.18,305.61 C207.18,308.58 210.89,307.42 215.9,311.78 C224.688836,319.414896 234.525248,325.752495 245.11,330.6 C244.11,321.88 242.5,312.15 235.42,306.96 C233.42,305.47 230.89,304.33 229.83,302.05 C228.14,298.42 231.03,293.99 229.72,290.2 C228.41,286.41 223.43,285.01 221.22,281.57 C219.34,278.65 219.85,274.68 221.61,271.68 C223.37,268.68 226.15,266.46 228.92,264.36 C231.38,262.5 233.873333,260.683333 236.4,258.91 C238.683172,257.46116 240.73319,255.674138 242.48,253.61 C243.48,252.24 244.14,249.24 245.53,248.27 C249.03,245.85 254.41,251.69 257.65,252.96 Z" id="Shape" fill="#000000" fill-rule="nonzero" opacity="0.1"></path>
            <path d="M256.65,251.96 C262.25,254.17 269.11,251.52 272.41,246.49 C275.71,241.46 275.61,234.61 272.83,229.27 C270.05,223.93 264.91,220.05 259.24,218.03 C255.8,216.81 251.97,216.11 249.33,213.59 C247.66,212 246.67,209.85 245.42,207.91 C240.75,200.63 232.42,196.33 223.95,194.64 C215.48,192.95 206.72,193.55 198.1,194.15 C194.88,194.38 191.1,194.96 189.64,197.84 C188.55,200 189.26,202.59 189.12,205 C188.67,212.67 180.12,216.92 172.65,218.76 C165.18,220.6 156.52,222.33 152.88,229.09 C149.62,235.16 151.95,242.52 152.96,249.34 C154.687153,261.252875 152.105619,273.391048 145.68,283.57 C142.41,288.7 138.2,293.26 135.61,298.77 C132.744947,304.927371 132.081268,311.881872 133.73,318.47 C134.22,320.4 134.91,322.36 134.57,324.32 C134.178092,325.930888 133.402759,327.423232 132.31,328.67 C123.44722,340.010187 110.196206,347.066251 95.84,348.09 C96.98,352.38 101.13,355.09 105.08,357.09 C111.820177,360.556718 118.923446,363.266558 126.26,365.17 C131.19,366.45 136.35,367.36 141.37,366.49 C146.39,365.62 151.28,362.67 153.37,358.01 C154.57,355.31 154.75,352.26 155.81,349.5 C158.2,343.31 164.57,339.57 167.99,333.88 C171.26,328.44 172.53,327.8 173.36,321.52 C174.19,315.24 176.02,308.46 181.18,304.77 C186.58,300.9 194.18,301.64 200.18,304.61 C206.18,307.58 209.89,306.42 214.9,310.78 C223.688836,318.414896 233.525248,324.752495 244.11,329.6 C243.11,320.88 241.5,311.15 234.42,305.96 C232.42,304.47 229.89,303.33 228.83,301.05 C227.14,297.42 230.03,292.99 228.72,289.2 C227.41,285.41 222.43,284.01 220.22,280.57 C218.34,277.65 218.85,273.68 220.61,270.68 C222.37,267.68 225.15,265.46 227.92,263.36 C230.38,261.5 232.873333,259.683333 235.4,257.91 C237.683172,256.46116 239.73319,254.674138 241.48,252.61 C242.48,251.24 243.14,248.24 244.53,247.27 C248.03,244.85 253.41,250.69 256.65,251.96 Z" id="Shape" fill="#916168" fill-rule="nonzero"></path>
            <g id="Group" opacity="0.1" transform="translate(293.000000, 549.000000)" fill="#FFFFFF" fill-rule="nonzero">
                <path d="M34.61,8.13 C34.685151,5.46818605 35.067689,2.82397607 35.75,0.25 L35.25,0.42 C34.7509336,2.95824775 34.5362756,5.54420541 34.61,8.13 Z" id="Shape"></path>
                <path d="M39.75,45.25 C31.75,45.72 6.75,34.25 1.75,28.25 C1.09336713,27.4374708 0.689989288,26.4498906 0.59,25.41 C0.293574963,27.1142399 0.713246293,28.8652823 1.75,30.25 C6.75,36.25 31.75,47.72 39.75,47.25 C48.25,46.75 76.75,48.25 77.75,35.25 C77.8246388,34.8910048 77.7752825,34.5173075 77.61,34.19 C75.32,46.17 48.04,44.76 39.75,45.25 Z" id="Shape"></path>
            </g>
            <rect id="Rectangle-path" stroke="#FFAB50" stroke-width="0.25" fill="#FFD77C" fill-rule="nonzero" x="372.25" y="295.75" width="1" height="41"></rect>
            <rect id="Rectangle-path" stroke="#FFAB50" stroke-width="0.25" fill="#FFD77C" fill-rule="nonzero" x="373.25" y="295.75" width="1" height="41"></rect>
            <rect id="Rectangle-path" stroke="#FFAB50" stroke-width="0.25" fill="#FFD77C" fill-rule="nonzero" x="374.25" y="295.75" width="1" height="41"></rect>
            <rect id="Rectangle-path" stroke="#FFAB50" stroke-width="0.25" fill="#FFD77C" fill-rule="nonzero" x="375.25" y="295.75" width="1" height="41"></rect>
            <rect id="Rectangle-path" stroke="#FFAB50" stroke-width="0.25" fill="#FFD77C" fill-rule="nonzero" x="376.25" y="295.75" width="1" height="41"></rect>
            <rect id="Rectangle-path" stroke="#FFAB50" stroke-width="0.25" fill="#FFD77C" fill-rule="nonzero" x="377.25" y="295.75" width="1" height="41"></rect>
            <rect id="Rectangle-path" stroke="#FFAB50" stroke-width="0.25" fill="#FFD77C" fill-rule="nonzero" x="378.25" y="295.75" width="1" height="41"></rect>
        </g>
        <rect id="Rectangle-2" fill="#3B5998" x="208" y="1959" width="828" height="254" rx="8"></rect>
        <text id="Login-with-Facebook" font-family="Avenir-Light, Avenir" font-size="80" font-weight="300" fill="#FFFFFF">
            <tspan x="252" y="2104">Login with Facebook</tspan>
        </text>
    </g>
</svg>